<svg xmlns="http://www.w3.org/2000/svg">
  <defs>
    <symbol viewBox="0 0 48 48" id="icon-alabama">
      <path fill="#1565c0" d="M36 35l1-4-1-1v-2l1-1-1-1v-2l-1-2-3-18H13v1l1 1-3 23.635V42l3 1 1-3h1v2l1 1-1 .664L17 44l3-.585V40l-2-2 1-1h18z"/>
    </symbol>
    <symbol viewBox="0 0 48 48" id="icon-alaska">
      <path fill="#1565c0" d="M47.625 37.998l-2.307-.715-.314-.906L43 34.307l-.849-.434-.261-.591-.89-.28v-1h-1l-1 1-.75-2.25L37 30h-1V11l-2-.998h-2l-1.633-1.433L28 8.002l-.571-1h-1.592L24 6l-3.429 1.002-.612 1.054-1.347.946H17l-1 .625 1 2.375v1l2 2-.5 1-2-1-.5-1h-3l-1 1.5 1 .5-1 1L13 18h5l-.625 1.002-.375 2h-3l-.529.286-.879 1.339-1.592.77v2.054L12.625 28H14v1.002L13 31h1.469L15 32h2.625l-.065.292-.366.345-.663.99-.858.513-.734 1.669-1.592.385-.612.899-.98.513-1.286.144-.673.498-.857.257-.98.128-.959.365V40h1l6-1.248 3.625-1.75 3.375-3V33h-1v-1l1.798-1.324.989-2.337.726-.762L24.625 27H26v1h-1l-1.125 1.252L23.5 31h.5v1.002h-1l.25.998H25l1-1h3l-1-1.373L29 30l1 .377.5.875L32 32h5v1.002l4.125 4.996 1.875 1v1l.006.448L45 41.998h1l-1-2h1l1.001 1 .999-1z"/>
      <path fill="#1565c0" d="M14 41l.25-1H15l-.25 1zm-2-.562l.5-.438.5.438-.5.437zm6 .062l.625-.5.375.625-.375.375zm2-2.373l.375 1.625.875.248 1.75-.998v-.375l-.5-.625-.5-.25.625-.375.375.25 1-.875-.75-.75zm-20 2.39L.75 41h2.875L5 40.5l-.5-1H3L2 40l-1.5.375zm8-13.66V26l1.75.286.25.571L9.625 28H9.02zm-3-9.358v-.751L5.724 16l.401.623.375.251.75.125L8 19H6.625l-.375-.876zm-3 4.376v-.625l.375-.25h.5l.5.75.625.625-.625.625z"/>
    </symbol>
    <symbol viewBox="0 0 48 48" id="icon-arizona">
      <path fill="#1565c0" d="M40 5H13v5l-1 2h-1l-1-2H8.5l-.5.5.625 3.625L9 18v1.466l.625 1.784 1 1.125L12 23v1l-1.097.411-.976.678-.591.638L9 26.915v.971l-.611.93-.381.366L8 31.383l.344.617H9v1l-1.25.5-.75.864V35.5L28.474 43H41z"/>
    </symbol>
    <symbol viewBox="0 0 48 48" id="icon-arkansas">
      <path fill="#1565c0" d="M38 11l.663-1.571 1.027-.858.31-1.178L39 6H5l1 9v21l1 1h2v5h23l1-1v-2l-1-1 1-1.125L32 36l.853-3.786 1.144-1.189.003-1.15L35 28l2-.5V25l.819-1.929L39 22.25V20l1-1v-3l2-1v-2l1-2z"/>
    </symbol>
    <symbol viewBox="0 0 48 48" id="icon-california">
      <path fill="#1565c0" d="M24.692 40h-.615s-.896-.508-.923-.615L23 38.769v-.308l.615-.461.804.324.439.448.142.305-.044.457-.264.466zM20 37.375l-.832-.135-.793-.24-1.375.875.625 1.125 2.125-.625z"/>
      <path fill="#1565c0" d="M41 35l-1.375-1L39 33 19 15.25V5H7l1 2.458v1.917l-1 1.308v1.412L9 15v2.331l1.602 2.472.175 1.03 1.223.792v1.225l.242 1.49L13 25h.625l.375.25v1.25l-.375.375L13 27v.711l1.375.969 1.08 1.313 1.295 1.382L17 32l1 .236V34l1 1h2.5l1 .25.5.75h1.513l.505.496V37h1.109l1.074 1.167.872.531.25.349.802.453L30 42l10-1v-1h-.5l-.5-.25V37zm-16.778 8l-.224-.054-.341-.176-.136-.104-.373-.541L23 41.5l.279-.406.346-.094.305.141.908.868.157.435-.274.371-.289.138z"/>
    </symbol>
    <symbol viewBox="0 0 48 48" id="icon-colorado">
      <path fill="#1565c0" d="M43 9l-10.771.792L24 10l-12.083-.312L5 9 4 38l11.356.717L27 39l11.109-.322L44 38z"/>
    </symbol>
    <symbol viewBox="0 0 48 48" id="icon-connecticut">
      <path fill="#1565c0" d="M33.187 30H34.5l.875-1h1.031L38 30v-3l1.75 2 1.75-1H43l1 1v-2l1-1v-7L44 9H29.25l-.875.882L27.5 9h-2.625L24 10.765l-1.75-.883V9H8L6 30l2 3-5 3.353L4.75 39l.875-1h1.75l6.125-2.529.875-1.471h.875l.75-1 2-1 1 1 2.375-3.706L23 31z"/>
    </symbol>
    <symbol viewBox="0 0 48 48" id="icon-delaware">
      <path fill="#1565c0" d="M32.551 40l-1.301 1L30 40l-2 1c-.03-.034-1-1-1-1l3-1.5-1-1.5h2l1.375 1-.275-3h-1.8L29 34v-1l-2-2.219v-1.859l-1.201-1.859-1.238-.438L23.999 23 25 22.25v-.875l-1.901-2.188L22 18.75V17l-2-1.75V13.5l1-2.5-1-1.001v-.875l1-.874 1.125-1.5.5-1.75 1.374-1S23 3 20.455 3C17 3 16 6 16 6h-1l2 39h16l-.449-5z"/>
    </symbol>
    <symbol viewBox="0 0 48 48" id="icon-florida">
      <path fill="#1565c0" d="M43.5 26.25l-1.5-2.5-1.15-2.162L40.078 20l1-1-2.703-4.625-1.98-3.83L35 6l-1.625-.5L32 5v2h-1V6H18l-1-1H4v1l1 1v2h.75l1.875-1h2.641L14 10l2 2h1l2-1h1v-1h1.875l.722.42 1.047.46.541.997.684.305.216.886.836.484.358.691L28 15l1 2v2l-1 3 .751 2.385L30 24v-2l2 1.75V25l-2.138 1.053.24.247 2.398 2.1.578 2.6h1l1 1 1 2h1.094l.656.75.25 1.75v.5l1.024 1h.976l.717-1h.813l.72-.196.75-.804.922-2v-6.25zM35.546 43L35 42.5l.297-.295.733-.1.345-.48L37 41.5l1 .25v.75l-1.808.294zm4.079-1l-.529-.334-.096-.278.193-.234 2.54-1.225.782-.952.735-1.602.375-.375.375.5v.75l-.361.526-.668 1.267-1.005.83z"/>
    </symbol>
    <symbol viewBox="0 0 48 48" id="icon-georgia">
      <path fill="#1565c0" d="M40 28.957V28h-1.6l-.525-1.75-.875-1-1-.25-.243-2.092-.753-2.329-1.443-.893-.683-.805-.364-1.012-.682-.806-.767-.572-.702-1.172-1.02-.965-1.567-.846-.117-.559L27 11.684l-.125-1.059L26 9h-1l-3-1.201v-.674l.5-.875L24 5H8l3 19 1 1.652V27l1 .375V28l-1.625 1.853-.348 1.647L12 33l-1 3.375L12 38l1 2 18 1v1l1 1 1-1.625V39.5l1-.5 2 1h1v-3l.6-3.087L39 32v-1z"/>
    </symbol>
    <symbol viewBox="0 0 48 48" id="icon-hawaii">
      <path fill="#1565c0" d="M1.875 12H0l1-2.739L2.625 9 3 10.043zM6 10.72L8.492 12l.852-.16L10 9.92l-.262-1.68L8.033 8l-1.64.88L6 10.72zm11 2.78l1.65 2.5 1.6-.75.75.75h1.4l.6-.758-1.25-.867L20 11l-2.7 1.25zM28 17l-.375.375L25.857 17 25 18.083l2.571.917H29.5l1.5-.625V17.5zm.217 7l-.592-1.375L27 22v-.532l.502-.465L29 21.25l1 1.25-.25 1.125-1.533.375zM31 20.324L32.01 19l2.093 1.103 1.949.515L38 21.868v.882l-1.588.809-2.165.441-1.082-.662L31 20.324zm6.091 6.308l1.07-.632 4.919 2.422 1.52.983.723 1.136.868 2.043L48 33.795l-.145.605-1.608 1.696-1.52.673-1.091-1.077-1.909 1.75L40.114 40h-.743l-2.28-1.615v-1.616l1.091-1.346-1.034-2.612L36 32.058v-1.212l1.148-.532 1.034-1.891-1.091-.808v-.983z"/>
    </symbol>
    <symbol viewBox="0 0 48 48" id="icon-idaho">
      <path fill="#1565c0" d="M36 29l-.336-1-.642.397L35 29h-3.381L30 29.25l-.5.75H29l-.771-1.646L27 27v-1l-2-3-.986 1-.875-.987-.139-.638 1-4.752-.375-.623-2.091-.283-1.083-.78L19 14l-.828-.435-.922-1.19L17 11l-1-1.875V4h-4v15l.421 1.951L13 22l1.5.375.5.625-1.555 1.863L13 27v.978l-1.125.397L11 29.5v1.13l.625.37H13v1l-1 2 .103 10H24l13-1z"/>
    </symbol>
    <symbol viewBox="0 0 48 48" id="icon-illinois">
      <path fill="#1565c0" d="M36 31l-.923-1.978L35 28l1-2-1-17-.952-2.579L33 5V3H17v1l1 .5v.875l.773 1.022.231 1.255-.899 2.973-1.105 1-1.625.375L15 13.02l.217.48.783.5v.995l-1 .788-.231.684-.019.555-1.125.353-.625 1V19l-.594.56-.406.788v1.484l.78 2.464 2.436 2.696L17 28l-1 1.25.692.75H19l1 1.25v1.375l-1.625 1.245L18 35.625l3.79 3.023 1.21.531.592 1.528L24 42v1l.5 1.25.692.75H26l.375-.875.625-.875 1-.25 1 1.125L31 45v-.625L30 43v-1l.875-.625L32 41v-1.478l.885-.457.313-.619.305-2.811.839-.958.685-1.298L36 32z"/>
    </symbol>
    <symbol viewBox="0 0 48 48" id="icon-indiana">
      <path fill="#1565c0" d="M37 33l-1-1 1-1V4H21l-1.75.75L18 5h-1l-2-1v24l-1 1v1l1 2v3l-1 1.75-1.206 1.698-1.207 1.198L11 42v2h1l1-1h4l1 1 1.258-1.391L20.75 42 22 43h1l.5-1.125L25 40v1l2 1 1-1v-2.033L30 38l2-2v-2h1.5l.5 1 2-1h1z"/>
    </symbol>
    <symbol viewBox="0 0 48 48" id="icon-iowa">
      <path fill="#1565c0" d="M45.729 22.118l-1.609-1.509-.178-.792-.376-.5L42 19v-1.328l-.687-1.172-1.031-.234-.719-.469L39 14.625V13.25l1-1.499v-.626l-1.035-.675L38 9H3l-1 .938v.937l1.832 1.875L2 16.5l1.189 2.125.44 2.563.733 3.003.348 2.077.934 1.595.249 2.272L7 32v3l1 2h24l4-1v.875L37.731 39 39 38v-1.406l.344-.469L40 36v-1l2-1.594V32l-2-.789v-.586l1.052-1.937 1.947-.352 1.583-1.113 1.165-2.285.253-1.829z"/>
    </symbol>
    <symbol viewBox="0 0 48 48" id="icon-kansas">
      <path fill="#1565c0" d="M45 22.659l-.753-4.212-.839-.617-1.188-1.08-.22-1.233L43 15l1-.577v-1.048L43 13h-1l-1-1h-3l-6 1H15L4 12 3 35l11 1h20.5l10.5-.923z"/>
    </symbol>
    <symbol viewBox="0 0 48 48" id="icon-kentucky">
      <path fill="#1565c0" d="M46.877 25.054L45 22v-1l-1-1v-2l-2-1v-1h-.875l-1.5 1L39 16h-1l-1 1h-.75l-.503-1.258L33.625 15l-.435-1.287L32.182 13H30l-1 1 1 .625-.006.669-1.119 1.128-1.5.578H26l-.417 1.53-1.458.97L23 21v.5l-.375.5H21.5l-.5-1-2 1v1h-1l-.625-1-1.117.44L15.5 24l-.875-.25L14 23h-3l-1.305.659L9 25v1.5l-.5.5h-1l-.5.75V30h-.75l-2.227-.993L3.25 29l-.875.625L2 30.5l1 1.125-.736.38L2 33l-.875.375L1 34l-1 1h10v-1h28l5-3v-1l2-2 2-1 1-1z"/>
    </symbol>
    <symbol viewBox="0 0 48 48" id="icon-louisiana">
      <path fill="#1565c0" d="M42 38l-2-.375-1-1.352 1.458-1.637L43 34l-.375-2L41 31l-2 2-1-1v-1l-2.5 1H34l-1-1 1-3h1l2.125 1H40l-1-2-2-1v-2l1-1H23v-1l1-1v-1l1-1v-1.625l1.375-1.875L29 12.545 27 11V9l-1-.625L27 7l-1-1H4v9l2 2 1 2 1 3v2l-1 3v3l.833 1.833L5 35l1 1 5-1 4 2 3 1h3v-1l-1-1 2-1 2 2 2 1 1 1 1 1 2 1h1l1-2h1l2 2 1-1v-2h1l2 1.545L42 42l2-1v-1z"/>
    </symbol>
    <symbol viewBox="0 0 48 48" id="icon-maine">
      <path fill="#1565c0" d="M38.514 25.875l-.514-1.5L37 24v1l-1-1v-3l-2-1V6l-3-3h-2v1l-2 1h-2l-1-1 1-1.125L23.062 2l-1.528 1.546-2.224 3.481-1.475 1.872-.743 2.797-.592.96-.703.344L15 15.75v1.625l-.727 1.469-1.772 1.445-1.134 2.288L11 24l-.875-.75L9 23v20l1 1v1l1.291 1 1.775-3.11 1.059-1.39.873-.507L15 39l1.953-1 .352 1h.82l2.359-1.021.518-.979h1.523l.975-.591L24 34v-2h1.375L26 33.625V35h1.625L28 33.75l-.5-.75 1-.625.875-1.375.625.927v.573l1.383.5L36 30h.937L39 28.125zM25 38.625L26.021 38l.979.75-.25 1.25h-1.375zM29.5 37l-.5-1.25.934-.75H31v1.125l-.375.125-.375.75z"/>
    </symbol>
    <symbol viewBox="0 0 48 48" id="icon-maryland">
      <path fill="#1565c0" d="M31 30v-2l-1-1v-5l1-3-1-1 1-1 .82-1.403L36 14v1l-1.433.767L34 17.845v.722L35 19v3l-2 1v1.375L34 25v3l1 2 2 1 1-1 1 3 1 1-1 4h3l3-3 2-5v-3h-7l-1-17H1v9l3-2 1-1 2.078.315L9 14l1 2h2l1-2h1l1-1 1 1h1l1 3 3 1-1 1 1 1 2 2 1 1 1-1 1 1-1 2-1-1-1 2v1l2 1 1 2h2l3 2h2z"/>
      <path fill="#1565c0" d="M35 33.375l.5-.375H37v4l-.75 1h-.5L35 36.5l.375-1.375z"/>
    </symbol>
    <symbol viewBox="0 0 48 48" id="icon-massachusetts">
      <path fill="#1565c0" d="M36.875 39L36 38v-.5l.5-.5.5.25.627-.623L38.75 36l2 .616.25.625V38l-2.2.36-1.05.015-.875.625zM48 27.264l-.696-2.056L46 22.625 45.043 22H44v2l1.625 1.478.375 1.028v2.369L45 30h-2l-3-1.952V26l-2-1v-1h1v-1l-.971-1L38 20.75l-1-1.25-1.5-.5-.5 1h-.875l-.75-.177L33 18.795V18l1-1v-1l1-.418v-.899L36 14l1.642-.264L38 13v-1h-1l-1-1V8.514L35.014 8H34l-2 1-1 1h-1l-1 1-26-1-3 13v1h8l1 1h1l1-1h17v2l1 1v1l1 1 1 1 1 3 1 1h1l.625-1L36 32v-1l1-1h1l1 2-1 1h2l2-1h4l1 1 1-1.096v-3.017zM46.625 40l-2.25-.25L44 39l.321-.418.804-.332.875.25v-1l.375-.5h.25l.375.25c.081.039.5.625.5.625l.081.507.419.243v1L46.625 40z"/>
    </symbol>
    <symbol viewBox="0 0 48 48" id="icon-michigan">
      <path fill="#1565c0" d="M13.25 9l.25-1 1-1.75L16 5h-1l-1.208.516-1.667 1.033-1.699 1.607L9 9H7l-1.333 1.163L4 11l1.5.5.5 1.125L7 13l4 1 1.125 1H15v1.125l1 1V19l.75 1.5.75.5 1.25-2 .75-2.125L20 15l1 1h2l1-1.375 2.5-.538L27 13l2.821 1.094.179.531 1.042.375.958-2 1 1h2v-1l-1.375-.875L33 10h-.625L32 11h-3V9h-1l-1 1h-3l-2 2-1.5-1-1.5 1h-1v-1.875l-1-1.5L15.917 8h-1.042L13.25 9zm30 22.625l-.875-2L41.5 28H40l-1.038 1.056-.837 1.419-.84.525L36 30.008v-1.633L37.5 27l.5-2v-3l-1-.75 1-.875L37.029 19l-1.154-.21-1.95-.532-.63-1.048-1.469-.21h-1.994L29 18l1 2h-1v3l-2 1v-3h-1l-.5 2h-1l-.5 1.589V27l-1 2 1 1.5-.99 1.073.49 2.052 1.125 2 .375 2-.25 2-.69 1.698-.63.734-.42.943h16.792l.84-1.677.315-1.677 1.154-.839.21-1.363 1.338-.301L44 34l-.75-2.375zM29.258 20.839c.024-.029.027-.059.039-.089a.162.162 0 0 1-.039.089z"/>
    </symbol>
    <symbol viewBox="0 0 48 48" id="icon-minnesota">
      <path fill="#1565c0" d="M39 12v-1l-3.5 1-.5-1h-1l-1 2h-2v-1h-.75L30 11v-1h-1l-.625 1-1.766-1.127L25.5 8H24l-1 1h-2V8h-2l-1-2V4.5L16 4v2H7l1 2-1 1v4l2 3v5.261L10 25v3l-1 1v1l1 1v13h25l-.375-3L34 40l-2-1-1-2h-1l-1-1h-1l-2-1v-3l1-1.022V30l-1-1 .994-1.541 1.506-.709.5-.75v-4l1-.5V21l1-1h1l.5-1 .497-.543 1.425-2.309.894-.885L41 13v-1z"/>
    </symbol>
    <symbol viewBox="0 0 48 48" id="icon-mississippi">
      <path fill="#1565c0" d="M34 29V3L24 4h-4v1l-1.201.632L18 7v2h-1l-2 3 1 .875-1 .625-1 2.5 1 1-1 1 1 1v2l-1 1v2.875L15 27v1h-1l1 1-3 6.047v2.973l1 .98 12-1 1 .875L25 42l1.5 1 .5 2 1-.375L29 43h1l2-1 2 1h1l1-1z"/>
    </symbol>
    <symbol viewBox="0 0 48 48" id="icon-missouri">
      <path fill="#1565c0" d="M44 34h-2l-1-2 1-1-1-3-2-1-1.875-1.489L36 24v-2l2-2-2-2-1 1-1-1v-2l-2-1-2.343-3L28 9V8l1-1-1-1-.5-1H3l1 1v1l.22 1.529L6 11l.937.045L7 13H6v1l1 2 1 1h1l1 4-1 15v3h29l1 1v1l-2 1v1h4.5l.5-2 1-2 2-2v-2z"/>
    </symbol>
    <symbol viewBox="0 0 48 48" id="icon-montana">
      <path fill="#1565c0" d="M45 12H11l-8.083-1L2 16.571 3 18v1l.436 1 1.064.625L5 23l1 1h1l-1 5v1l1 1 2-1v1l1 3 2 1v1l.375 1H13l1-1h2l1 1h1v-1l.5-1 1 2h.5v-3h26z"/>
    </symbol>
    <symbol viewBox="0 0 48 48" id="icon-nebraska">
      <path fill="#1565c0" d="M45 33v-1l-1-3v-2l-1-.875V24l-1-1-1-7h-1l-1-1h-.865l-1.562-.539-.594-.461-2.093.321L32 15l-1.625-1.625L30 12H2L1 28h10v8h20l16-1z"/>
    </symbol>
    <symbol viewBox="0 0 48 48" id="icon-nevada">
      <path fill="#1565c0" d="M36 3H10v18l26 24v-2l-1-4v-1h1l1 1 .781-.344L38 38z"/>
    </symbol>
    <symbol viewBox="0 0 48 48" id="icon-new-hampshire">
      <path fill="#1565c0" d="M35 39v-2l-2-1v-1l-1-1-2-31-1 1-1-1-2 1v1.875L25 7v1l-1 1v1l-1 2 1 1v2.25l-.346.875L23 17h-1.375L21 18h-2l-1 1v3l-1 1v1l-1 2v1l-1 3v1.016l-.625.75-.375 1.25V35l-1 1v3l-1 2v1l1 2 14 1 1-1h1v-1h1l.5-.75 2.125-.25L34 43l2-3z"/>
    </symbol>
    <symbol viewBox="0 0 48 48" id="icon-new-jersey">
      <path fill="#1565c0" d="M33 26v-7l-1-2h-1v1l-2-1v-2l1.5-1 .5-1V6L19 2h-1l-1 2v3l-2 2v1l1 2-.75 1.5-1.25.868V17l3 1 1 2 5 3v1l-3 3-2 1v1l-3 3-1 3.089L15 37l2.697 2.266L22 41h3v1l-.989 3.235L25 46h1l1-2 2-4 2.438-3.354 1.603-5.242L34 27z"/>
    </symbol>
    <symbol viewBox="0 0 48 48" id="icon-new-mexico">
      <path fill="#1565c0" d="M40 30l-2-16V8h1l-1-3-9 1H8v37h5v-3h9l-1-1v-1h11l8-1z"/>
    </symbol>
    <symbol viewBox="0 0 48 48" id="icon-new-york">
      <path fill="#1565c0" d="M45 37l-1.625 1H41l-1 1h-2v-2l1-1-1-2v-8l1-3v-5l-1-1v-4l1-1v-2l-1-2V6h-7.898l-1.132.358-1.888 1.167-1.23 1.107-1.344 1.379L24 11l-3 1v2l1 .5v.5l-1 .5v.5l1 1v.625l-.347.375H20.48l-.851.579-.855 1.006L18 20h-2l-.801.192-.704.808-1.878-1.5L11 19H9l-3 1v2l1 1v1l-.974.184-.934.813-.286.532-1.512.754L3 27l-2 1v2h25.347l1.045.986.987.542.468 2.044.654.842.895.242L32 36l4.018 2L35 40v1.5l1 .5h2.043l3.541-.422L47 38l-2-1zm-3.884 2.765l.019-.022.007.011-.026.011z"/>
    </symbol>
    <symbol viewBox="0 0 48 48" id="icon-north-carolina">
      <path fill="#1565c0" d="M48 20v-2l-.695-.782-.93-1.593L46 14l-5 1H27l-12-1-.5 1.5-.875.5L13 18l-.375-.625-.671.095L11 19l-1-.5V18h-.625l-1.023 1.049L8 20l-1.668.504-1.456.916-1.252.259-1.249.571L2 23l-.918.304-.738.622L0 26h7l2.052-.608L12 24l2 .125L19 25l1 1v1h5l1 .5 3.267 3.336L32 34l2-1 1.25 1 .241-1.054.917-1.97 1.268-1.323 2.233-1.365L41.375 28H43l2-1.75-.375-.25H44l-2-.625L43 24v-2l2 1h.625l.682-1.687L47 21v-1z"/>
    </symbol>
    <symbol viewBox="0 0 48 48" id="icon-north-dakota">
      <path fill="#1565c0" d="M44.751 31.077l-1.407-5.76L43 21l-.308-1L42 18l-1-3.267L42 12l-1-2H3L2 32v6h44l-.415-3.942z"/>
    </symbol>
    <symbol viewBox="0 0 48 48" id="icon-ohio">
      <path fill="#1565c0" d="M42 19L41 3l-5.607 2.708L32 9h-3l-3 2h-2l-1-2h-3l-3-2H6v31h2.143l1.286-1 1.392 1.219L12 41h2l1 1h1l1-1 2 2h2l.625-1.25L23 41v2l2 2h2l1-2h1v-5h1v1l1 1 1.5-.75L33 38l-1-1v-1l2.625-3 .875 1 1.375-1.125 1.681-1.713 1.337-1.874L41 24v-3l-1-1v-1z"/>
    </symbol>
    <symbol viewBox="0 0 48 48" id="icon-oklahoma">
      <path fill="#1565c0" d="M48 24l-1-8v-5H27L0 10v4l16 1v14l.399 1.118 1.351 1.151.625.269.375-.403 1.25-.27 1 .673v1.481l1 .269 2.123.449.752 1.032L25.5 34l1.375.231.625.769h.5v1h.625l.682-1.381.625.673 1.568.554 1 1.154 1-1.25L36 36l.75 1h.875l.583-.399.417-.601L40 37h1l1.375-1 1.625.385 1.25 1.211L48 38z"/>
    </symbol>
    <symbol viewBox="0 0 48 48" id="icon-oregon">
      <path fill="#1565c0" d="M44.125 10.625L43 9H33l-1.875 1h-3L26 11h-1l-3 2-1-1h-3l-1 1h-2l-3-1V9l-1-1H9.5L9 7H7l-1.083 7.417L5 17v4.972l-1.167 5.806L2 34l1 3v2l.875 1.25L7 41h22l9.625-1L43 41.125V26l1-2-.375-1h-.75L42 22.625V21l1.125-2.125.572-.325L44 18v-1.452L46 12z"/>
    </symbol>
    <symbol viewBox="0 0 48 48" id="icon-pennsylvania">
      <path fill="#1565c0" d="M44.552 30.889l-.427-1.514L43 29v-2l.641-.375.359-1.25V24l1.379-1.567.303-1.433L47 20l-.599-1-1.192-.346-.828-.999L44 15l-3-2H8V9l-3 2H4l-2 1-1 26 8 1h30l1-1h1.49l1.706-.551.935-1.253.966-.99L47 34v-.5z"/>
    </symbol>
    <symbol viewBox="0 0 48 48" id="icon-rhode-island">
      <path fill="#1565c0" d="M32.688 14l-2.285-.561L29.375 12 29 11V7l-2 1V1H10s.018 31.991 0 32c-.009.009-1.421.74-1.421.74l-.571 1.995S7.982 38.982 8 39c.018.009 12-4 12-4h1l2 1 2-5.995V26.25l-1-1v-.875l1.147-.727L26 21.75l-.625-2.092L24 19l1-1 1.243.347.507.653L29 16l-3-1.979V12h1l1 2 2 1 2 2v.625L33 18l1-2.5-1.312-1.5zM37 30l-.734-4.807-.25-3.144.298-2.002.717-1.047L40 20l-.625 2.625L40 23v4.5L37 30zm-6 1v-1.644l1.25-.981-.25-1L32.375 25l.375-1.125s.573-2.148.611-2.263c.075-.161.324-.469.768-.981l.496-.631H35v9h-1l-1 1h-.75L32 31h-1z"/>
      <path fill="#1565c0" d="M27.741 30.997L27 30.5V29l1-1-.577-.875.952-3.125 1.625.5v1.267l-.29 2.456-.292 1.5-1.677 1.274zM17 46v-.5l.5-1.5 1.5-.5V42h1.25l.375.625v1.625L21 45.875 19 47h-.75zm12.333-28L29 19.667l.5.583.5.827-.333.769.222 1.154h.444l.445-.897.222-1.411-1-1.192v-.875z"/>
    </symbol>
    <symbol viewBox="0 0 48 48" id="icon-south-carolina">
      <path fill="#1565c0" d="M36 9H25V7l-1.958-2H10L3 8v1l-2 2v1l3 2h2l.5 3 .463 1.011 1.122 1.734.387.849 2.286 1.225 1.495 1.414 1.038 1.725 1.121.835.963 1.207.585 1.47 1.003 1.182L19 31l1.375 3.375L21 37l1.124.647 1.08 1.28.494 2.028L24 42l1 1 2.375-1.034L30 39v-2h1.667l.958-2H34.5l1-2 1.88-.687L38.734 30H40v-2h1.5l.5-4 2.125-3L47 19.047z"/>
    </symbol>
    <symbol viewBox="0 0 48 48" id="icon-south-dakota">
      <path fill="#1565c0" d="M46 30V17l-.25-1.375-1.484-1.048L44 13l1-1v-1H24L4 9 2 33l27 1h5l.375 1L37 37l1.335-.559L40.75 36l1.01.773 1.49.352.75.5L45 39h1l-1-2 1-4-1-1v-1.375z"/>
    </symbol>
    <symbol viewBox="0 0 48 48" id="icon-tennessee">
      <path fill="#1565c0" d="M47 17l-1 1H13v1H4v2l-1.823 5.003-.187.923L1 28v1l-.464 1.476L0 31h33l.507-1.411.607-.459L35 29l.515-1.885 1.413-.836L38 26l1.635-1.514 1.443-.595.297-.516L42.625 22H43v.625l.75.375.875-2H46l.596-.949 1.001-.826L48 18v-1z"/>
    </symbol>
    <symbol viewBox="0 0 48 48" id="icon-texas">
      <path fill="#1565c0" d="M46 23.087l-.209-.616-.841-.937-.222-.894-.499-.712L44 18.375V14h-1.375l-.613-.393L40.5 13H38l-1.375.5-.365.457-.635-.957H34l-1 1-.569-.49-.193-.442-.79-.253-.378.619-.417-.097-.191-.4-.511-.719L29.25 12 29 13l-.506-.637-.921-.363H27v-1l-.917-.228h-.916l-.917-.457L24 3H14v18H2l.171.664.353.064.496.494.312.768.865.352.269.567.949 1.114.25.276.922.32.227.365.3.155.119.489L8 27.995v1.255l2.321 2.183.95.318.348.445.735.576L13.5 33l1.075-1.013.13-.68.368-.608.677-.492.875-.207h1.75l1 .75.625.793L22 33l.75.5L23 35l1.212 1.263 1.194 1.542L26 38l1 1v1.875l.295.386.307 1.149.422.674 1.132.546 1.469.37.513.338h.687l1.397.281.795.381.983-1-.573-.37-.321-.856-.933-1.347L33 41v-.875l.5-1.375 1.011-.96-.428-.323.151-.36.368-.15.63-1.035.6-.156 1.043-1.141L39 33l1-.125 1.765-1.529.8-.665.151-.361 1.712-.93L46 29v-2l-1-1 1-1z"/>
    </symbol>
    <symbol viewBox="0 0 48 48" id="icon-utah">
      <path fill="#1565c0" d="M38 11l-4 1h-7l-1-8H8v40l32-1z"/>
    </symbol>
    <symbol viewBox="0 0 48 48" id="icon-vermont">
      <path fill="#1565c0" d="M35.793 7.787l.548-1.23.659-.818V4l-24 .005V5l-1 1.625 1 .875-.699.862L12 10.125l.474 1.432L13 12v1.625L12 15l1 2-1.199 1.342-.801 2.18 1 .853V24l-1 1 1 .875-1 1.603v1.647L12.071 28H13v1l1 1-1 14h11l-.375-.75L23 43l-1-1v-.625l1-.625V40l1-1v-2.717l1-2.783v-3.37l.25-1.13.625-.375.563-2.016 1.054-.891.46-2.054L29 22.75v-1.087l1-1.038V17l.5-1.25 1.071-.75h.929l1-1h.929l.821-2H36v-1l-1-2.625.445-.259z"/>
    </symbol>
    <symbol viewBox="0 0 48 48" id="icon-virginia">
      <path fill="#1565c0" d="M47 32h-3l2-1-1-1v-3.5l1-1.5-.35-.566-1.389-.565-.636-.869-1.838-.658L41 21h-2v-1l1.25-1 .533-1.456L42 16l-.75-1L40 16l-2-1v-1l-1-1-1.375 2-2.476-3-.274 1.375-.75 1.25L31 15v1l-1 1h-1l-1 2-1 1-.75-.375L26 19h-1l-4 7v1l-1 1h-.5l-1.125 1-1-1-.75 1H15l-1-1-1 1h-1l-.69-.514L11 28v-1l-6 4-.283.764L0 33l10.48 1.512L28 36l20-1z"/>
    </symbol>
    <symbol viewBox="0 0 48 48" id="icon-washington">
      <path fill="#1565c0" d="M45 32V9H13.573L13 9.938 15 12v3.551l.542 1.512.458.468V18l-1 1-1.083-1.562-1.032-.586L12 16v-1l-1 .375L10 16H9l-2.5-.25-1.5-.625-1.132-.751L3 13H2v4l1 1 1 4v1l.75 2.289L6 26.5l-1 .625V29h1v1l-1 .711V32l1 1 1-1h1.25L9 33h1.25l1.231 1.598L12 37v1l.625.625 1.843.375L17 38.5l1-1.5h2l2 1 1.656-.289.719-.711 1.125 1 1.594-.289L28.625 36l1 1L35 35h11z"/>
      <path fill="#1565c0" d="M6 11.25L9 10l1 1-.375 1v1.375L8.75 14l-1.375-.5-.75-.75z"/>
    </symbol>
    <symbol viewBox="0 0 48 48" id="icon-west-virginia">
      <path fill="#1565c0" d="M3 36l2 4 2 2 1 2 1 1h2l.661-.358L12 44l1 1h3.213L17 43h2l2-1h1l1-1v-2l2.164-2.918L29 30v-1.375L30 28l.625.625.375.75L33 30l1.5-4H36c-.003-.003.577-.856.577-.856l.886-1.043 1.62-1.245.93-1.241L41 17h1l3.401 2.376L46 20h.625L47 18l-1-3-2-1h-1l-2 2-2-1-2 2-1-1-5 4h-1v-6h-7V3h-2.234l-.599.955L21 6l-1 8-1 1-6 3h-1l-2 3v1l1 2-2.333 1L7 23l-2 3v2l-1 1v1l-1 1H1v3l2 2z"/>
    </symbol>
    <symbol viewBox="0 0 48 48" id="icon-wisconsin">
      <path fill="#1565c0" d="M42 19h-.429l-2.726 2.911-1.338.823-.382.891-.603.465L36 25h-1l1.633-3.37.746-.602L38 20l-.857-.543-.857-4.348-1.179-.652-.572-1.06L30 12l-1-1-5-1-1-2h-2.232L20 7h-.375l-1 1L18 7l.5-1L20 4.625 18.857 4l-1.071.217-1.038.747L12.25 7l-1.536-.326L10 6 9 7v4l-.5 1L7 13l-1 2 1 1v1l-1 2v4l1.625 2H9l.59 1.325 1.41.3 1.133 2.166 1.242 1.678.62.95L15 36l1 1v1l-1 1v1l1 2 2 1 1 1h19v-2l-1-1.625V35l1-1v-3.038l.274-.704.905-.823L40 28v-2.609L42 20z"/>
    </symbol>
    <symbol viewBox="0 0 48 48" id="icon-wyoming">
      <path fill="#1565c0" d="M42 9l-15 1H5L4 39h18l22-1z"/>
    </symbol>
  </defs>
</svg>